<svg id="Layer_1" data-name="Layer 1" xmlns="http://www.w3.org/2000/svg" width="25" height="25" viewBox="0 0 25 25"><title>mail-icon-new</title><path d="M12.55,15.7664C8.5614,12.5824,4.6336,9.4335.6867,6.3087A1.4094,1.4094,0,0,1,.3442,4.44,4.9,4.9,0,0,1,1.7989,3.0051c.1891-.1461.5668-.06.8584-.06q9.9129-.0033,19.8259.0014c1.6579.0019,2.4369.7283,2.3773,2.2739a1.6389,1.6389,0,0,1-.5123,1.093C20.4644,9.46,16.5515,12.57,12.55,15.7664Z"/><path d="M24.3126,22.08H.7973l7.0853-8.4511L12.547,17.33l4.66-3.6976Z"/><path d="M18.0446,12.8851l6.7539-5.3942V20.9065Z"/><path d="M.261,20.954V7.4622L7.05,12.8828Z"/></svg>