<svg id="Layer_1" data-name="Layer 1" xmlns="http://www.w3.org/2000/svg" width="25" height="25" viewBox="0 0 25 25"><title>help-icon-new</title><path d="M12.5384,25A12.5,12.5,0,1,1,25,12.4759,12.4925,12.4925,0,0,1,12.5384,25ZM8.8142,11.6345c.1717-.0441.3112-.0776.45-.1157,1.4409-.3973,1.9356.0366,1.6828,1.479-.0285.1624-.06.3249-.1031.484-.3262,1.2157-.6962,2.4212-.9739,3.6477-.3979,1.7578.2887,2.7933,1.8965,3.0222a6.0515,6.0515,0,0,0,2.829-.5247.8812.8812,0,0,0,.6691-1.0106,11.6683,11.6683,0,0,1-1.2292.1474c-.7877.0132-1.0761-.26-.99-1.05a18.66,18.66,0,0,1,.4359-2.0528c.2624-1.1651.6225-2.3178.7666-3.4971a1.89,1.89,0,0,0-1.7984-2.1154,6.0871,6.0871,0,0,0-2.84.4732A.9719.9719,0,0,0,8.8142,11.6345Zm6.7212-5.0426a1.8126,1.8126,0,0,0-1.9128-1.773A1.8625,1.8625,0,0,0,11.6859,6.59a1.9208,1.9208,0,0,0,1.9663,1.827A1.86,1.86,0,0,0,15.5354,6.5919Z"/></svg>