<svg id="Layer_1" data-name="Layer 1" xmlns="http://www.w3.org/2000/svg" width="25" height="25" viewBox="0 0 25 25"><title>phone-icon-new</title><path d="M0,1.079C.0348.9906.0676.9014.1046.8139a1.2239,1.2239,0,0,1,1.1791-.8q2.5388-.0253,5.0779,0A1.238,1.238,0,0,1,7.6227,1.2484,17.6142,17.6142,0,0,0,7.96,4.47c.1334.5854.2836,1.1684.4588,1.7425a1.6334,1.6334,0,0,1-.4622,1.7962c-.9251.8808-1.8437,1.7686-2.7723,2.6457a.2834.2834,0,0,0-.0734.4082,20.54,20.54,0,0,0,4.6518,5.88,23.7894,23.7894,0,0,0,4.182,2.9425.2806.2806,0,0,0,.4085-.0674c.9211-.9314,1.8452-1.86,2.7808-2.7771a1.7914,1.7914,0,0,1,.6351-.432,1.1132,1.1132,0,0,1,.7031,0,11.86,11.86,0,0,0,2.827.7178c.7412.0907,1.49.1293,2.2365.1655A1.3487,1.3487,0,0,1,25,19.02q.0009,2.1723,0,4.3446c0,.9874-.2189,1.3058-1.123,1.6341H22.5585c-.3227-.03-.6451-.0635-.968-.09a22.9835,22.9835,0,0,1-7.808-2.0462A23.3906,23.3906,0,0,1,3.4509,13.6912a23.0354,23.0354,0,0,1-3.31-9.7451c-.0531-.4994-.0944-1-.1412-1.5Z"/></svg>